{"title":"Captain USA vs Nazifighters (2013) - REMUX - German English","uid":14803428,"size":5469124333,"categoryP":"video","categoryS":"movies","magnet":"?xt=urn:btih:80b9159b831482a1bae4f5a384d5c71e0978b377&amp;dn=Captain+USA+vs+Nazifighters+%282013%29+-+REMUX+-+German+English&amp;tr=udp%3A%2F%2Ftracker.leechers-paradise.org%3A6969&amp;tr=udp%3A%2F%2Fzer0day.ch%3A1337&amp;tr=udp%3A%2F%2Fopen.demonii.com%3A1337&amp;tr=udp%3A%2F%2Ftracker.coppersurfer.tk%3A6969&amp;tr=udp%3A%2F%2Fexodus.desync.com%3A6969","seeders":0,"leechers":0,"uploader":"fleischgemuese","files":1,"time":1465149562,"description":"German and English audio, source: German retail DVD.\r\n\r\nProudly brought to you by MiLCHBROETCHEN\r\n\r\nMediainfo:\r\n\r\n\r\nVideo\r\nID : 1\r\nFormat : MPEG Video\r\nFormat version : Version 2\r\nFormat profile :   \r\nFormat settings, BVOP : Yes\r\nFormat settings, Matrix : Custom\r\nFormat settings, GOP : Variable\r\nFormat settings, picture structure : Frame\r\nCodec ID : V_MPEG2\r\nCodec ID/Info : MPEG 1 or 2 Video\r\nDuration : 1h 21mn\r\nBit rate : 7 828 Kbps\r\nMaximum bit rate : 8 000 Kbps\r\nWidth : 720 pixels\r\nHeight : 576 pixels\r\nDisplay aspect ratio : 16:9\r\nFrame rate mode : Constant\r\nFrame rate : 25.000 fps\r\nStandard : PAL\r\nColor space : YUV\r\nChroma subsampling : 4:2:0\r\nBit depth : 8 bits\r\nScan type : Interlaced\r\nScan order : Top Field First\r\nCompression mode : Lossy\r\nBits/(Pixel*Frame) : 0.755\r\nTime code of first frame : 01:00:00:00\r\nTime code source : Group of pictures header\r\nStream size : 4.48 GiB (88%)\r\nLanguage : English\r\nDefault : No\r\nForced : No\r\nDURATION : 01:21:55.280000000\r\n\r\n\r\nAudio #1\r\nID : 2\r\nFormat : AC-3\r\nFormat/Info : Audio Coding 3\r\nMode extension : CM (complete main)\r\nFormat settings, Endianness : Big\r\nCodec ID : A_AC3\r\nDuration : 1h 21mn\r\nBit rate mode : Constant\r\nBit rate : 448 Kbps\r\nChannel(s) : 6 channels\r\nChannel positions : Front: L C R, Side: L R, LFE\r\nSampling rate : 48.0 KHz\r\nBit depth : 16 bits\r\nCompression mode : Lossy\r\nStream size : 263 MiB (5%)\r\nTitle : Surround 5.1\r\nLanguage : German\r\nDefault : Yes\r\nForced : No\r\nDURATION : 01:21:55.296000000\r\n\r\n\r\nAudio #2\r\nID : 3\r\nFormat : AC-3\r\nFormat/Info : Audio Coding 3\r\nMode extension : CM (complete main)\r\nFormat settings, Endianness : Big\r\nCodec ID : A_AC3\r\nDuration : 1h 21mn\r\nBit rate mode : Constant\r\nBit rate : 448 Kbps\r\nChannel(s) : 6 channels\r\nChannel positions : Front: L C R, Side: L R, LFE\r\nSampling rate : 48.0 KHz\r\nBit depth : 16 bits\r\nCompression mode : Lossy\r\nStream size : 263 MiB (5%)\r\nTitle : Surround 5.1\r\nLanguage : English\r\nDefault : No\r\nForced : No\r\nDURATION : 01:21:55.296000000\r\n\r\n\r\nMenu\r\n00:00:00.000 : en:Chapter 01\r\n00:06:31.880 : en:Chapter 02\r\n00:14:06.320 : en:Chapter 03\r\n00:21:27.480 : en:Chapter 04\r\n00:27:18.600 : en:Chapter 05\r\n00:33:59.160 : en:Chapter 06\r\n00:41:33.920 : en:Chapter 07\r\n00:48:50.120 : en:Chapter 08\r\n00:54:32.640 : en:Chapter 09\r\n01:01:30.840 : en:Chapter 10\r\n01:09:10.120 : en:Chapter 11\r\n01:16:40.160 : en:Chapter 12","torrent":{"xt":"urn:btih:80b9159b831482a1bae4f5a384d5c71e0978b377","amp;dn":"Captain+USA+vs+Nazifighters+%282013%29+-+REMUX+-+German+English","amp;tr":["udp%3A%2F%2Ftracker.leechers-paradise.org%3A6969","udp%3A%2F%2Fzer0day.ch%3A1337","udp%3A%2F%2Fopen.demonii.com%3A1337","udp%3A%2F%2Ftracker.coppersurfer.tk%3A6969","udp%3A%2F%2Fexodus.desync.com%3A6969"],"infoHash":"80b9159b831482a1bae4f5a384d5c71e0978b377","infoHashBuffer":{"type":"Buffer","data":[128,185,21,155,131,20,130,161,186,228,245,163,132,213,199,30,9,120,179,119]},"announce":[],"urlList":[]}}